<svg width="287" height="82" viewBox="0 0 287 82" fill="none" xmlns="http://www.w3.org/2000/svg">
<g clip-path="url(#clip0_125_281)">
<path fill-rule="evenodd" clip-rule="evenodd" d="M28.2881 47.2214C22.0444 45.598 15.3533 40.3787 13.7935 40.13C13.9477 41.1628 15.1968 43.5497 15.7476 44.4724C18.2765 48.7093 23.0408 50.6347 28.0136 51.3816C31.9238 51.9686 35.3779 51.5336 39.2625 50.6553C41.4389 50.1635 46.9628 48.4367 48.8559 47.6316C47.7663 46.999 33.5314 48.5844 28.2881 47.2214Z" fill="#A9E589"/>
<path fill-rule="evenodd" clip-rule="evenodd" d="M24.3829 53.535C23.0721 52.8215 19.6504 50.7099 18.4309 50.3645C18.5756 51.2319 19.7062 53.3108 20.2191 54.0587C22.7336 57.7265 25.9229 58.7256 30.6743 59.6327C33.7433 60.2185 37.3731 59.7289 40.3901 59.0528C41.8318 58.7299 43.1529 58.3605 44.5665 57.9353C45.3611 57.6962 47.8667 57.0035 48.4683 56.5181C42.9386 56.548 35.8971 57.1768 30.7713 56.2102C28.8277 55.8438 26.0396 54.4369 24.3829 53.535Z" fill="#A9E589"/>
<path fill-rule="evenodd" clip-rule="evenodd" d="M22.1624 59.3425C22.5406 61.3824 24.6761 63.9859 26.051 64.8791C30.6079 67.8395 36.3338 67.8596 41.5037 66.8206C43.3372 66.4523 47.7545 65.1329 48.5339 64.7359L48.7215 64.629C43.6328 64.5257 38.044 65.3147 33.2587 64.3329C28.7078 63.3993 23.4659 59.5274 22.1624 59.3425Z" fill="#A9E589"/>
<path fill-rule="evenodd" clip-rule="evenodd" d="M25.7075 68.005C26.2913 69.1473 26.3927 69.5607 27.1415 70.4921C29.0607 72.8792 32.2022 73.5485 35.1791 73.885C37.4466 74.1415 39.8459 73.8788 42.104 73.4462C43.0491 73.265 47.284 72.2432 47.9457 71.9174C46.9568 71.5217 37.7405 72.3191 35.223 71.753C33.1361 71.2838 32.0754 70.8745 30.2828 70.0513C29.3636 69.6291 26.4786 68.0827 25.7075 68.005Z" fill="#A9E589"/>
<path fill-rule="evenodd" clip-rule="evenodd" d="M8.27023 3.13296C7.84895 3.22295 7.58299 3.38043 7.19496 3.65055C6.80694 3.92068 6.297 4.30329 5.58743 5.12459C4.87802 5.94606 3.96882 7.20637 3.22617 8.44418C2.48335 9.682 1.90676 10.8973 1.46348 12.1801C1.01988 13.4629 0.709557 14.8133 0.483419 16.0961C0.257281 17.3789 0.115458 18.5942 0.0446301 19.8658C-0.0261985 21.1373 -0.0261835 22.4652 0.144383 23.8604C0.315111 25.2557 0.656409 26.7187 1.24841 28.5303C1.84026 30.3419 2.68283 32.5025 3.7361 34.6406C4.78921 36.7785 6.05302 38.894 7.40567 40.9534C8.75816 43.0124 10.1993 45.0155 11.4743 46.6922C12.7491 48.3688 13.8578 49.7192 14.4121 50.3719C14.9663 51.0245 14.9663 50.9794 14.8112 50.6531C14.656 50.3267 14.3455 49.7192 13.7136 48.4251C13.0817 47.1311 12.1284 45.1505 11.3412 43.3388C10.5541 41.5272 9.93319 39.8843 9.31243 38.2188C8.69151 36.5534 8.07078 34.8657 7.61625 33.0313C7.16173 31.1972 6.87343 29.2166 6.71828 27.512C6.56297 25.807 6.54081 24.378 6.6407 23.1234C6.74045 21.8687 6.96209 20.7885 7.35012 19.6519C7.73815 18.5154 8.29254 17.3226 9.01866 16.2423C9.74478 15.1621 10.6428 14.1944 11.5629 13.4067C12.483 12.619 13.4255 12.0112 14.1238 11.6568C14.8223 11.3024 15.2768 11.2012 15.6538 11.1448C16.0307 11.0886 16.33 11.0773 16.6737 11.173C17.0173 11.2686 17.4054 11.4712 17.9985 11.7581C18.5916 12.0452 19.3898 12.4163 20.7534 12.9454C22.1169 13.4742 24.0461 14.1607 25.6369 14.6388C27.2277 15.1171 28.4805 15.3871 29.5614 15.5728C30.6423 15.7584 31.5514 15.8597 32.4105 15.9217C33.2697 15.9835 34.079 16.0061 34.9215 15.9217C35.7641 15.8372 36.6399 15.6459 37.5102 15.3871C38.3806 15.1284 39.2451 14.802 39.6609 14.622C40.0766 14.4419 40.0433 14.4082 39.8328 14.4364C39.6221 14.4644 39.2342 14.5544 38.4303 14.6051C37.6267 14.6558 36.4072 14.6671 35.0768 14.5657C33.7465 14.4644 32.3052 14.2507 30.7366 13.8456C29.1678 13.4405 27.4717 12.844 25.5926 12.0452C23.7135 11.2462 21.6514 10.2446 19.9331 9.31634C18.2146 8.38795 16.84 7.53274 15.4819 6.64949C14.1238 5.76607 12.7824 4.85463 12.0063 4.30329C11.2303 3.75195 11.0198 3.56056 10.7536 3.40309C10.4876 3.24545 10.1661 3.12171 9.71699 3.07102C9.26809 3.02048 8.6915 3.04297 8.27023 3.13296Z" fill="#A9E589"/>
<path fill-rule="evenodd" clip-rule="evenodd" d="M51.2269 1.34617C49.697 0.828583 48.411 0.648442 47.4743 0.552912C46.5375 0.457219 45.9497 0.445971 44.9632 0.468468C43.9766 0.490966 42.5907 0.547207 40.9223 0.732888C39.2539 0.918568 37.3026 1.23368 35.2406 1.70628C33.1785 2.17888 31.0056 2.80896 29.5034 3.29297C28.0012 3.77681 27.1697 4.11427 26.0445 4.64327C24.9193 5.17211 23.5002 5.89234 22.4582 6.47188C21.4159 7.05125 20.7508 7.4901 20.4349 7.72078C20.1188 7.95144 20.1523 7.97395 20.3739 7.87842C20.5957 7.78273 21.0059 7.56884 21.6099 7.27067C22.2141 6.97251 23.0125 6.5899 24.0657 6.17355C25.1188 5.75719 26.4269 5.30709 27.713 4.91893C28.999 4.53079 30.2628 4.20442 31.5433 3.93999C32.8237 3.67541 34.1208 3.47294 35.7894 3.36046C37.4578 3.24781 39.4977 3.22532 40.9501 3.27047C42.4023 3.31546 43.267 3.42795 44.2537 3.59667C45.2404 3.76557 46.349 3.99054 47.4244 4.32815C48.4997 4.66577 49.5418 5.11586 50.523 5.75719C51.5042 6.39867 52.4242 7.23139 53.2833 8.09784C54.1426 8.9643 54.9409 9.8645 55.6946 10.9054C56.4485 11.9463 57.158 13.1277 57.6458 14.0561C58.1336 14.9845 58.3997 15.6595 58.6492 16.391C58.8986 17.1225 59.1314 17.9103 59.342 18.7372C59.5527 19.5642 59.7411 20.4309 59.8298 21.6517C59.9186 22.8726 59.9074 24.448 59.7855 25.8321C59.6636 27.2161 59.4307 28.4089 59.2256 29.3878C59.0204 30.3669 58.8431 31.1321 58.4108 32.2855C57.9784 33.4389 57.2911 34.9804 56.6039 36.314C55.9164 37.6474 55.229 38.7727 54.6636 39.7123C54.0983 40.652 53.6548 41.4057 53.3498 41.8841C53.045 42.3624 52.8789 42.5648 52.7957 42.7168C52.7125 42.8687 52.7123 42.97 53.0396 42.5761C53.3665 42.1823 54.0206 41.2933 54.8244 40.1681C55.6281 39.0427 56.5816 37.6812 57.5183 36.2633C58.4551 34.8455 59.3753 33.3714 60.1125 32.0717C60.8499 30.772 61.4041 29.6467 61.8642 28.4989C62.3242 27.3512 62.6902 26.1809 63.0104 25.0444C63.3305 23.9079 63.605 22.8051 63.7424 21.5897C63.8797 20.3744 63.8797 19.0467 63.7978 17.9328C63.7158 16.8186 63.5523 15.9184 63.2044 14.7089C62.8563 13.499 62.3242 11.98 61.5814 10.5058C60.8388 9.03179 59.8853 7.60275 58.9707 6.45492C58.056 5.30709 57.1802 4.44064 55.8554 3.57989C54.5307 2.71897 52.7569 1.86376 51.2269 1.34617Z" fill="#A9E589"/>
<path fill-rule="evenodd" clip-rule="evenodd" d="M34.1068 79.6657C33.7854 79.5336 33.4971 79.3871 33.1644 79.1734C32.8318 78.9596 32.4551 78.6783 32.1806 78.4645C31.9062 78.2507 31.7344 78.1043 31.5377 77.9243C31.3407 77.7443 31.1191 77.5305 30.9833 77.4293C30.8475 77.3279 30.7976 77.3392 30.8419 77.5248C30.8862 77.7105 31.0248 78.0706 31.3215 78.5349C31.618 78.999 32.0725 79.5673 32.5354 79.9752C32.9982 80.3831 33.4693 80.6307 34.2232 80.8696C34.9771 81.1088 36.0137 81.3395 36.9588 81.4522C37.9039 81.5646 38.7576 81.559 39.5059 81.4999C40.2541 81.4408 40.8972 81.3282 41.3905 81.1847C41.8837 81.0413 42.2274 80.8669 42.6488 80.625C43.07 80.3831 43.5689 80.0736 44.0428 79.6825C44.5168 79.2915 44.9659 78.8189 45.3317 78.321C45.6975 77.8232 45.9802 77.2999 46.1077 76.9707C46.2352 76.6415 46.2074 76.5064 46.152 76.4699C46.0966 76.4333 46.0135 76.4953 45.8222 76.7005C45.631 76.9059 45.3315 77.2548 44.9104 77.6375C44.4891 78.0201 43.9459 78.4364 43.3943 78.7768C42.8428 79.1172 42.2828 79.3816 41.7091 79.6011C41.1355 79.8205 40.548 79.9949 40.1127 80.0989C39.6776 80.2031 39.395 80.2368 38.7907 80.2508C38.1866 80.2649 37.2608 80.2593 36.5985 80.2198C35.9361 80.1806 35.5369 80.1074 35.1601 80.0117C34.7831 79.916 34.4284 79.798 34.1068 79.6657Z" fill="#A9E589"/>
</g>
<g clip-path="url(#clip1_125_281)">
<path d="M96.453 20.8441H101.617V51.7689H96.453V20.8441ZM106.781 22.9909C106.781 21.9465 106.578 20.9505 106.171 20.0028C105.765 19.0551 105.214 18.2332 104.518 17.537C103.822 16.8407 103 16.2895 102.052 15.8834C101.104 15.4772 100.089 15.2742 99.0058 15.2742C97.9229 15.2742 96.9171 15.4869 95.9888 15.9124C95.0605 16.3379 94.2483 16.8987 93.5519 17.5949C92.8557 18.2913 92.3142 19.1132 91.9274 20.0609C91.5405 21.0085 91.3472 22.0045 91.3472 23.0488V49.216C91.3472 50.2603 91.5405 51.2467 91.9274 52.175C92.3142 53.1033 92.8557 53.9252 93.5519 54.6409C94.2483 55.3564 95.0605 55.9173 95.9888 56.3234C96.9171 56.7295 97.9229 56.9327 99.0058 56.9327H111.944V51.7689H106.781V22.9909ZM132.89 56.9327V26.0078H127.784V51.7689H122.62V26.0078H117.398V49.216C117.398 50.2603 117.611 51.2467 118.036 52.175C118.462 53.1033 119.023 53.9252 119.719 54.6409C120.415 55.3564 121.237 55.9173 122.185 56.3234C123.133 56.7295 124.129 56.9327 125.173 56.9327H132.89ZM147.511 51.7689H142.347V40.6289H147.511V51.7689ZM144.9 56.9327H152.675V33.7826C152.675 32.6609 152.472 31.6261 152.065 30.6785C151.659 29.7308 151.108 28.9089 150.412 28.2127C149.716 27.5164 148.894 26.9749 147.946 26.5882C146.998 26.2013 145.983 26.0078 144.9 26.0078H137.241V31.1717H147.511V35.3492H144.9C143.817 35.3492 142.811 35.5522 141.883 35.9583C140.955 36.3645 140.142 36.9157 139.446 37.612C138.75 38.3082 138.208 39.1301 137.821 40.0778C137.435 41.0254 137.241 42.0408 137.241 43.1238V49.1579C137.241 50.2409 137.435 51.2563 137.821 52.2039C138.208 53.1516 138.75 53.9735 139.446 54.6699C140.142 55.3661 140.955 55.9173 141.883 56.3234C142.811 56.7295 143.817 56.9327 144.9 56.9327ZM163.002 57.2227V15.6802H157.838V52.175C157.838 53.6448 158.351 54.8536 159.376 55.8012C160.401 56.7489 161.61 57.2227 163.002 57.2227ZM178.087 61.9804C178.087 63.4115 178.58 64.63 179.567 65.6356C180.554 66.6414 181.782 67.1441 183.252 67.1441V26.0078H178.087V51.7108H172.924V26.0078H167.702V49.332C167.702 50.3764 167.915 51.3628 168.34 52.2911C168.766 53.2193 169.326 54.022 170.023 54.6988C170.719 55.3758 171.541 55.9173 172.489 56.3234C173.436 56.7295 174.432 56.9327 175.477 56.9327H178.087V61.9804ZM206.865 57.2227C207.949 57.2227 208.964 57.0197 209.912 56.6135C210.859 56.2074 211.681 55.6561 212.377 54.96C213.074 54.2637 213.625 53.4417 214.031 52.4941C214.437 51.5464 214.64 50.5312 214.64 49.4481V46.6051C214.64 45.522 214.437 44.4969 214.031 43.5301C213.625 42.563 213.074 41.7314 212.377 41.0352C211.681 40.3388 210.859 39.7877 209.912 39.3816C208.964 38.9754 207.949 38.7723 206.865 38.7723C206.208 38.7723 205.618 38.5209 205.096 38.0181C204.573 37.5152 204.313 36.9157 204.313 36.2194V31.1717H209.476V36.3354H214.64V33.4925C214.64 32.4094 214.437 31.3845 214.031 30.4174C213.625 29.4504 213.074 28.6091 212.377 27.8936C211.681 27.1779 210.859 26.6171 209.912 26.211C208.964 25.8048 207.949 25.6017 206.865 25.6017C205.783 25.6017 204.777 25.8048 203.849 26.211C202.92 26.6171 202.108 27.1779 201.411 27.8936C200.716 28.6091 200.174 29.4504 199.787 30.4174C199.401 31.3845 199.207 32.4094 199.207 33.4925V36.2194C199.207 37.3024 199.401 38.3179 199.787 39.2655C200.174 40.2132 200.716 41.0352 201.411 41.7313C202.108 42.4276 202.92 42.9788 203.849 43.385C204.777 43.791 205.783 43.9942 206.865 43.9942C207.639 43.9942 208.268 44.2553 208.751 44.7774C209.235 45.2997 209.476 45.9089 209.476 46.6051V51.7689H204.313V45.6767H199.207V49.4481C199.207 50.5312 199.401 51.5464 199.787 52.4941C200.174 53.4417 200.716 54.2637 201.411 54.96C202.108 55.6561 202.92 56.2074 203.849 56.6135C204.777 57.0197 205.783 57.2227 206.865 57.2227ZM233.671 27.9806C232.975 27.3617 232.182 26.8781 231.292 26.5301C230.402 26.182 229.474 26.0078 228.507 26.0078H220.733V56.9327H225.896V31.1717H231.06V56.9327H236.166V31.1717H241.33V56.9327H246.493V33.7246C246.493 32.6415 246.3 31.6261 245.913 30.6785C245.527 29.7308 244.985 28.9089 244.288 28.2127C243.592 27.5164 242.771 26.9749 241.823 26.5882C240.875 26.2013 239.86 26.0078 238.776 26.0078C237.771 26.0078 236.824 26.182 235.934 26.5301C235.044 26.8781 234.29 27.3617 233.671 27.9806ZM257.459 57.2227V26.0078H252.295V52.175C252.295 53.6448 252.808 54.8536 253.833 55.8012C254.858 56.7489 256.066 57.2227 257.459 57.2227ZM252.295 15.6802V20.8441H257.459V15.6802H252.295ZM267.323 57.2227V15.6802H262.159V52.175C262.159 53.6448 262.671 54.8536 263.696 55.8012C264.722 56.7489 265.93 57.2227 267.323 57.2227ZM278.868 25.6017C277.786 25.6017 276.78 25.8048 275.852 26.211C274.924 26.6171 274.111 27.1779 273.414 27.8936C272.719 28.6091 272.177 29.4504 271.79 30.4174C271.404 31.3845 271.21 32.4094 271.21 33.4925V49.4481C271.21 50.5312 271.404 51.5464 271.79 52.4941C272.177 53.4417 272.719 54.2637 273.414 54.96C274.111 55.6561 274.924 56.2074 275.852 56.6135C276.78 57.0197 277.786 57.2227 278.868 57.2227C279.952 57.2227 280.967 57.0197 281.915 56.6135C282.863 56.2074 283.685 55.6561 284.38 54.96C285.077 54.2637 285.628 53.4417 286.034 52.4941C286.44 51.5464 286.643 50.5312 286.643 49.4481V46.6051H281.48V51.7689H276.316V41.4412H286.643V33.4925C286.643 32.3708 286.44 31.3264 286.034 30.3595C285.628 29.3924 285.077 28.5608 284.38 27.8646C283.685 27.1684 282.863 26.6171 281.915 26.211C280.967 25.8048 279.952 25.6017 278.868 25.6017ZM276.316 31.1717H281.48V36.3354H276.316V31.1717Z" fill="black"/>
</g>
<defs>
<clipPath id="clip0_125_281">
<rect width="64" height="82" fill="white"/>
</clipPath>
<clipPath id="clip1_125_281">
<rect width="195.7" height="52.9842" fill="white" transform="translate(91 15)"/>
</clipPath>
</defs>
</svg>
