<svg width="287" height="82" viewBox="0 0 287 82" fill="none" xmlns="http://www.w3.org/2000/svg">
<g clip-path="url(#clip0_144_388)">
<path fill-rule="evenodd" clip-rule="evenodd" d="M28.2881 47.2213C22.0444 45.5979 15.3533 40.3785 13.7935 40.1299C13.9477 41.1627 15.1968 43.5496 15.7476 44.4723C18.2765 48.7092 23.0408 50.6346 28.0136 51.3815C31.9238 51.9684 35.3779 51.5335 39.2625 50.6552C41.4389 50.1634 46.9628 48.4366 48.8559 47.6315C47.7663 46.9989 33.5314 48.5843 28.2881 47.2213Z" fill="#A9E589"/>
<path fill-rule="evenodd" clip-rule="evenodd" d="M24.3829 53.5348C23.0721 52.8213 19.6504 50.7096 18.4309 50.3643C18.5756 51.2316 19.7062 53.3105 20.2191 54.0584C22.7336 57.7263 25.9229 58.7254 30.6743 59.6325C33.7433 60.2182 37.3731 59.7287 40.3901 59.0525C41.8318 58.7296 43.1529 58.3602 44.5665 57.9351C45.3611 57.6959 47.8667 57.0033 48.4683 56.5179C42.9386 56.5478 35.8971 57.1765 30.7713 56.21C28.8277 55.8436 26.0396 54.4367 24.3829 53.5348Z" fill="#A9E589"/>
<path fill-rule="evenodd" clip-rule="evenodd" d="M22.1624 59.3428C22.5406 61.3827 24.6761 63.9861 26.051 64.8794C30.6079 67.8398 36.3338 67.8598 41.5037 66.8209C43.3372 66.4525 47.7545 65.1331 48.5339 64.7361L48.7215 64.6292C43.6328 64.5259 38.044 65.3149 33.2587 64.3332C28.7078 63.3995 23.4659 59.5276 22.1624 59.3428Z" fill="#A9E589"/>
<path fill-rule="evenodd" clip-rule="evenodd" d="M25.7075 68.0049C26.2913 69.1471 26.3927 69.5605 27.1415 70.4919C29.0607 72.8791 32.2022 73.5484 35.1791 73.8849C37.4466 74.1414 39.8459 73.8786 42.104 73.4461C43.0491 73.2649 47.284 72.2431 47.9457 71.9172C46.9568 71.5216 37.7405 72.3189 35.223 71.7529C33.1361 71.2837 32.0754 70.8744 30.2828 70.0512C29.3636 69.629 26.4786 68.0826 25.7075 68.0049Z" fill="#A9E589"/>
<path fill-rule="evenodd" clip-rule="evenodd" d="M8.27023 3.13284C7.84895 3.22282 7.58299 3.38031 7.19496 3.65043C6.80694 3.92056 6.297 4.30317 5.58743 5.12447C4.87802 5.94594 3.96882 7.20625 3.22617 8.44406C2.48335 9.68188 1.90676 10.8972 1.46348 12.18C1.01988 13.4628 0.709557 14.8132 0.483419 16.096C0.257281 17.3788 0.115458 18.5941 0.0446301 19.8656C-0.0261985 21.1372 -0.0261835 22.465 0.144383 23.8603C0.315111 25.2556 0.656409 26.7186 1.24841 28.5302C1.84026 30.3418 2.68283 32.5024 3.7361 34.6404C4.78921 36.7784 6.05302 38.8939 7.40567 40.9533C8.75816 43.0123 10.1993 45.0154 11.4743 46.6921C12.7491 48.3687 13.8578 49.7191 14.4121 50.3718C14.9663 51.0244 14.9663 50.9793 14.8112 50.653C14.656 50.3266 14.3455 49.7191 13.7136 48.425C13.0817 47.131 12.1284 45.1504 11.3412 43.3387C10.5541 41.5271 9.93319 39.8842 9.31243 38.2187C8.69151 36.5533 8.07078 34.8656 7.61625 33.0312C7.16173 31.1971 6.87343 29.2165 6.71828 27.5119C6.56297 25.8069 6.54081 24.3779 6.6407 23.1233C6.74045 21.8686 6.96209 20.7884 7.35012 19.6518C7.73815 18.5153 8.29254 17.3225 9.01866 16.2422C9.74478 15.162 10.6428 14.1943 11.5629 13.4066C12.483 12.6189 13.4255 12.0111 14.1238 11.6567C14.8223 11.3023 15.2768 11.2011 15.6538 11.1447C16.0307 11.0884 16.33 11.0771 16.6737 11.1729C17.0173 11.2685 17.4054 11.4711 17.9985 11.758C18.5916 12.0451 19.3898 12.4162 20.7534 12.9453C22.1169 13.4741 24.0461 14.1606 25.6369 14.6387C27.2277 15.117 28.4805 15.3869 29.5614 15.5727C30.6423 15.7583 31.5514 15.8596 32.4105 15.9215C33.2697 15.9834 34.079 16.006 34.9215 15.9215C35.7641 15.8371 36.6399 15.6458 37.5102 15.3869C38.3806 15.1283 39.2451 14.8019 39.6609 14.6219C40.0766 14.4418 40.0433 14.4081 39.8328 14.4363C39.6221 14.4643 39.2342 14.5543 38.4303 14.605C37.6267 14.6556 36.4072 14.6669 35.0768 14.5656C33.7465 14.4643 32.3052 14.2505 30.7366 13.8454C29.1678 13.4403 27.4717 12.8439 25.5926 12.0451C23.7135 11.246 21.6514 10.2445 19.9331 9.31622C18.2146 8.38782 16.84 7.53262 15.4819 6.64937C14.1238 5.76595 12.7824 4.85451 12.0063 4.30317C11.2303 3.75183 11.0198 3.56044 10.7536 3.40297C10.4876 3.24533 10.1661 3.12159 9.71699 3.0709C9.26809 3.02036 8.6915 3.04285 8.27023 3.13284Z" fill="#A9E589"/>
<path fill-rule="evenodd" clip-rule="evenodd" d="M51.2269 1.34605C49.697 0.828461 48.411 0.64832 47.4743 0.55279C46.5375 0.457097 45.9497 0.445849 44.9632 0.468346C43.9766 0.490844 42.5907 0.547085 40.9223 0.732766C39.2539 0.918446 37.3026 1.23356 35.2406 1.70616C33.1785 2.17876 31.0056 2.80884 29.5034 3.29285C28.0012 3.77669 27.1697 4.11415 26.0445 4.64314C24.9193 5.17199 23.5002 5.89222 22.4582 6.47175C21.4159 7.05113 20.7508 7.48998 20.4349 7.72066C20.1188 7.95132 20.1523 7.97382 20.3739 7.8783C20.5957 7.7826 21.0059 7.56872 21.6099 7.27055C22.2141 6.97239 23.0125 6.58978 24.0657 6.17342C25.1188 5.75707 26.4269 5.30697 27.713 4.91881C28.999 4.53066 30.2628 4.20429 31.5433 3.93987C32.8237 3.67529 34.1208 3.47282 35.7894 3.36033C37.4578 3.24768 39.4977 3.22519 40.9501 3.27035C42.4023 3.31534 43.267 3.42783 44.2537 3.59655C45.2404 3.76545 46.349 3.99041 47.4244 4.32803C48.4997 4.66565 49.5418 5.11574 50.523 5.75707C51.5042 6.39855 52.4242 7.23127 53.2833 8.09772C54.1426 8.96418 54.9409 9.86438 55.6946 10.9052C56.4485 11.9462 57.158 13.1275 57.6458 14.0559C58.1336 14.9844 58.3997 15.6594 58.6492 16.3909C58.8986 17.1224 59.1314 17.9102 59.342 18.7371C59.5527 19.5641 59.7411 20.4308 59.8298 21.6516C59.9186 22.8724 59.9074 24.4479 59.7855 25.832C59.6636 27.216 59.4307 28.4088 59.2256 29.3877C59.0204 30.3668 58.8431 31.132 58.4108 32.2854C57.9784 33.4388 57.2911 34.9803 56.6039 36.3138C55.9164 37.6472 55.229 38.7726 54.6636 39.7121C54.0983 40.6518 53.6548 41.4056 53.3498 41.884C53.045 42.3622 52.8789 42.5647 52.7957 42.7166C52.7125 42.8686 52.7123 42.9699 53.0396 42.576C53.3665 42.1822 54.0206 41.2932 54.8244 40.1679C55.6281 39.0426 56.5816 37.6811 57.5183 36.2631C58.4551 34.8454 59.3753 33.3713 60.1125 32.0716C60.8499 30.7719 61.4041 29.6466 61.8642 28.4988C62.3242 27.3511 62.6902 26.1808 63.0104 25.0443C63.3305 23.9078 63.605 22.805 63.7424 21.5896C63.8797 20.3743 63.8797 19.0466 63.7978 17.9326C63.7158 16.8185 63.5523 15.9183 63.2044 14.7088C62.8563 13.4989 62.3242 11.9799 61.5814 10.5057C60.8388 9.03167 59.8853 7.60263 58.9707 6.4548C58.056 5.30697 57.1802 4.44052 55.8554 3.57976C54.5307 2.71885 52.7569 1.86364 51.2269 1.34605Z" fill="#A9E589"/>
<path fill-rule="evenodd" clip-rule="evenodd" d="M34.1068 79.6657C33.7854 79.5336 33.4971 79.3871 33.1644 79.1734C32.8318 78.9596 32.4551 78.6783 32.1806 78.4645C31.9062 78.2507 31.7344 78.1043 31.5377 77.9243C31.3407 77.7443 31.1191 77.5305 30.9833 77.4293C30.8475 77.3279 30.7976 77.3392 30.8419 77.5248C30.8862 77.7105 31.0248 78.0706 31.3215 78.5349C31.618 78.999 32.0725 79.5673 32.5354 79.9752C32.9982 80.3831 33.4693 80.6307 34.2232 80.8696C34.9771 81.1088 36.0137 81.3395 36.9588 81.4522C37.9039 81.5646 38.7576 81.559 39.5059 81.4999C40.2541 81.4408 40.8972 81.3282 41.3905 81.1847C41.8837 81.0413 42.2274 80.8669 42.6488 80.625C43.07 80.3831 43.5689 80.0736 44.0428 79.6825C44.5168 79.2915 44.9659 78.8189 45.3317 78.321C45.6975 77.8232 45.9802 77.2999 46.1077 76.9707C46.2352 76.6415 46.2074 76.5064 46.152 76.4699C46.0966 76.4333 46.0135 76.4953 45.8222 76.7005C45.631 76.9059 45.3315 77.2548 44.9104 77.6375C44.4891 78.0201 43.9459 78.4364 43.3943 78.7768C42.8428 79.1172 42.2828 79.3816 41.7091 79.6011C41.1355 79.8205 40.548 79.9949 40.1127 80.0989C39.6776 80.2031 39.395 80.2368 38.7907 80.2508C38.1866 80.2649 37.2608 80.2593 36.5985 80.2198C35.9361 80.1806 35.5369 80.1074 35.1601 80.0117C34.7831 79.916 34.4284 79.798 34.1068 79.6657Z" fill="#A9E589"/>
</g>
<g clip-path="url(#clip1_144_388)">
<path d="M96.453 20.8443H101.617V51.7691H96.453V20.8443ZM106.781 22.9911C106.781 21.9468 106.578 20.9507 106.171 20.003C105.765 19.0554 105.214 18.2334 104.518 17.5372C103.822 16.841 103 16.2897 102.052 15.8836C101.104 15.4774 100.089 15.2744 99.0058 15.2744C97.9229 15.2744 96.9171 15.4871 95.9888 15.9127C95.0605 16.3381 94.2483 16.8989 93.5519 17.5952C92.8557 18.2915 92.3142 19.1135 91.9274 20.0611C91.5405 21.0088 91.3472 22.0047 91.3472 23.0491V49.2162C91.3472 50.2606 91.5405 51.2469 91.9274 52.1753C92.3142 53.1035 92.8557 53.9255 93.5519 54.6411C94.2483 55.3566 95.0605 55.9175 95.9888 56.3237C96.9171 56.7298 97.9229 56.9329 99.0058 56.9329H111.944V51.7691H106.781V22.9911ZM132.89 56.9329V26.0081H127.784V51.7691H122.62V26.0081H117.398V49.2162C117.398 50.2606 117.611 51.2469 118.036 52.1753C118.462 53.1035 119.023 53.9255 119.719 54.6411C120.415 55.3566 121.237 55.9175 122.185 56.3237C123.133 56.7298 124.129 56.9329 125.173 56.9329H132.89ZM147.511 51.7691H142.347V40.6292H147.511V51.7691ZM144.9 56.9329H152.675V33.7828C152.675 32.6611 152.472 31.6264 152.065 30.6787C151.659 29.7311 151.108 28.9091 150.412 28.2129C149.716 27.5167 148.894 26.9751 147.946 26.5884C146.998 26.2016 145.983 26.0081 144.9 26.0081H137.241V31.1719H147.511V35.3495H144.9C143.817 35.3495 142.811 35.5524 141.883 35.9585C140.955 36.3647 140.142 36.9159 139.446 37.6122C138.75 38.3085 138.208 39.1304 137.821 40.078C137.435 41.0257 137.241 42.041 137.241 43.124V49.1582C137.241 50.2412 137.435 51.2565 137.821 52.2042C138.208 53.1518 138.75 53.9738 139.446 54.6702C140.142 55.3664 140.955 55.9175 141.883 56.3237C142.811 56.7298 143.817 56.9329 144.9 56.9329ZM163.002 57.223V15.6805H157.838V52.1753C157.838 53.645 158.351 54.8538 159.376 55.8015C160.401 56.7491 161.61 57.223 163.002 57.223ZM178.087 61.9806C178.087 63.4118 178.58 64.6303 179.567 65.6358C180.554 66.6416 181.782 67.1444 183.252 67.1444V26.0081H178.087V51.7111H172.924V26.0081H167.702V49.3323C167.702 50.3766 167.915 51.363 168.34 52.2913C168.766 53.2196 169.326 54.0222 170.023 54.699C170.719 55.376 171.541 55.9175 172.489 56.3237C173.436 56.7298 174.432 56.9329 175.477 56.9329H178.087V61.9806ZM206.865 57.223C207.949 57.223 208.964 57.0199 209.912 56.6137C210.859 56.2076 211.681 55.6563 212.377 54.9602C213.074 54.264 213.625 53.4419 214.031 52.4943C214.437 51.5466 214.64 50.5314 214.64 49.4483V46.6054C214.64 45.5223 214.437 44.4972 214.031 43.5303C213.625 42.5633 213.074 41.7317 212.377 41.0354C211.681 40.339 210.859 39.7879 209.912 39.3818C208.964 38.9756 207.949 38.7726 206.865 38.7726C206.208 38.7726 205.618 38.5212 205.096 38.0183C204.573 37.5154 204.313 36.9159 204.313 36.2197V31.1719H209.476V36.3356H214.64V33.4927C214.64 32.4096 214.437 31.3847 214.031 30.4176C213.625 29.4506 213.074 28.6093 212.377 27.8939C211.681 27.1782 210.859 26.6173 209.912 26.2112C208.964 25.805 207.949 25.602 206.865 25.602C205.783 25.602 204.777 25.805 203.849 26.2112C202.92 26.6173 202.108 27.1782 201.411 27.8939C200.716 28.6093 200.174 29.4506 199.787 30.4176C199.401 31.3847 199.207 32.4096 199.207 33.4927V36.2197C199.207 37.3027 199.401 38.3181 199.787 39.2658C200.174 40.2135 200.716 41.0354 201.411 41.7316C202.108 42.4278 202.92 42.979 203.849 43.3852C204.777 43.7912 205.783 43.9944 206.865 43.9944C207.639 43.9944 208.268 44.2555 208.751 44.7777C209.235 45.2999 209.476 45.9091 209.476 46.6054V51.7691H204.313V45.6769H199.207V49.4483C199.207 50.5314 199.401 51.5466 199.787 52.4943C200.174 53.4419 200.716 54.264 201.411 54.9602C202.108 55.6563 202.92 56.2076 203.849 56.6137C204.777 57.0199 205.783 57.223 206.865 57.223ZM233.671 27.9809C232.975 27.3619 232.182 26.8784 231.292 26.5303C230.402 26.1822 229.474 26.0081 228.507 26.0081H220.733V56.9329H225.896V31.1719H231.06V56.9329H236.166V31.1719H241.33V56.9329H246.493V33.7248C246.493 32.6417 246.3 31.6264 245.913 30.6787C245.527 29.7311 244.985 28.9091 244.288 28.2129C243.592 27.5167 242.771 26.9751 241.823 26.5884C240.875 26.2016 239.86 26.0081 238.776 26.0081C237.771 26.0081 236.824 26.1822 235.934 26.5303C235.044 26.8784 234.29 27.3619 233.671 27.9809ZM257.459 57.223V26.0081H252.295V52.1753C252.295 53.645 252.808 54.8538 253.833 55.8015C254.858 56.7491 256.066 57.223 257.459 57.223ZM252.295 15.6805V20.8443H257.459V15.6805H252.295ZM267.323 57.223V15.6805H262.159V52.1753C262.159 53.645 262.671 54.8538 263.696 55.8015C264.722 56.7491 265.93 57.223 267.323 57.223ZM278.868 25.602C277.786 25.602 276.78 25.805 275.852 26.2112C274.924 26.6173 274.111 27.1782 273.414 27.8939C272.719 28.6093 272.177 29.4506 271.79 30.4176C271.404 31.3847 271.21 32.4096 271.21 33.4927V49.4483C271.21 50.5314 271.404 51.5466 271.79 52.4943C272.177 53.4419 272.719 54.264 273.414 54.9602C274.111 55.6563 274.924 56.2076 275.852 56.6137C276.78 57.0199 277.786 57.223 278.868 57.223C279.952 57.223 280.967 57.0199 281.915 56.6137C282.863 56.2076 283.685 55.6563 284.38 54.9602C285.077 54.264 285.628 53.4419 286.034 52.4943C286.44 51.5466 286.643 50.5314 286.643 49.4483V46.6054H281.48V51.7691H276.316V41.4414H286.643V33.4927C286.643 32.3711 286.44 31.3267 286.034 30.3597C285.628 29.3927 285.077 28.5611 284.38 27.8648C283.685 27.1686 282.863 26.6173 281.915 26.2112C280.967 25.805 279.952 25.602 278.868 25.602ZM276.316 31.1719H281.48V36.3356H276.316V31.1719Z" fill="white"/>
</g>
<defs>
<clipPath id="clip0_144_388">
<rect width="64" height="82" fill="white"/>
</clipPath>
<clipPath id="clip1_144_388">
<rect width="195.7" height="52.9842" fill="white" transform="translate(91 15)"/>
</clipPath>
</defs>
</svg>
