<svg width="44" height="43" viewBox="0 0 44 43" fill="none" xmlns="http://www.w3.org/2000/svg">
<path d="M21.9675 0C10.3158 0 0.850098 9.46567 0.850098 21.1174C0.850098 24.8626 1.87722 28.3578 3.59019 31.4089L0.88417 41.0692C0.840938 41.2237 0.838985 41.387 0.878504 41.5425C0.918024 41.6981 0.997635 41.8406 1.1094 41.9558C1.22117 42.071 1.36118 42.1549 1.51548 42.1992C1.66979 42.2434 1.83299 42.2464 1.98882 42.2079L12.0615 39.7117C15.0214 41.2918 18.3799 42.2348 21.9675 42.2348C33.6192 42.2348 43.0849 32.7691 43.0849 21.1174C43.0849 9.46567 33.6192 0 21.9675 0ZM21.9675 1.83629C32.6267 1.83629 41.2486 10.4581 41.2486 21.1174C41.2486 31.7766 32.6267 40.3985 21.9675 40.3985C18.5502 40.3985 15.3496 39.5075 12.5672 37.9507C12.3637 37.837 12.1246 37.8049 11.8983 37.861L3.07732 40.047L5.44263 31.6079C5.47647 31.4887 5.48582 31.3638 5.4701 31.2408C5.45438 31.1179 5.41393 30.9993 5.35117 30.8924C3.66026 28.0251 2.68639 24.6891 2.68639 21.1174C2.68639 10.4581 11.3082 1.83629 21.9675 1.83629ZM14.2941 10.0996C13.7056 10.0996 12.865 10.3186 12.1745 11.0626C11.7598 11.5095 10.0316 13.1933 10.0316 16.1537C10.0316 19.24 12.1721 21.9032 12.4309 22.2453H12.4327V22.2471C12.4082 22.2149 12.7612 22.7262 13.2325 23.3392C13.7038 23.9523 14.3628 24.7575 15.1908 25.6292C16.8466 27.3726 19.1747 29.3875 22.0643 30.6198C23.395 31.1865 24.4448 31.5286 25.2402 31.7783C26.7142 32.2411 28.0567 32.1708 29.0652 32.0222C29.8201 31.911 30.6503 31.5486 31.4717 31.0287C32.2932 30.5089 33.0983 29.8625 33.4533 28.8804C33.7076 28.1763 33.8369 27.5257 33.8837 26.9903C33.907 26.7226 33.91 26.4863 33.8926 26.2676C33.8752 26.0489 33.8938 25.8813 33.69 25.5467C33.2625 24.8449 32.7784 24.8266 32.2733 24.5766C31.9927 24.4377 31.1936 24.0475 30.3922 23.6656C29.5917 23.2841 28.8985 22.9463 28.4716 22.7941C28.2019 22.697 27.8726 22.5574 27.3975 22.6112C26.9223 22.665 26.4531 23.0078 26.1798 23.4128C25.9209 23.7966 24.8784 25.0272 24.5605 25.3889C24.5563 25.3864 24.5839 25.3991 24.4583 25.3369C24.0652 25.1424 23.5845 24.977 22.8731 24.6017C22.1617 24.2264 21.2718 23.6723 20.298 22.8138V22.812C18.8486 21.536 17.8333 19.934 17.513 19.3959C17.5346 19.3702 17.5105 19.4013 17.5561 19.3564L17.5579 19.3546C17.8852 19.0322 18.1753 18.6471 18.4204 18.3647C18.768 17.9643 18.9214 17.6114 19.0875 17.2816C19.4187 16.6244 19.2343 15.9012 19.0427 15.5206V15.5188C19.0559 15.5452 18.939 15.2873 18.8131 14.9898C18.6869 14.6915 18.526 14.3048 18.3541 13.8924C18.0103 13.0675 17.6265 12.1424 17.3983 11.6006V11.5988C17.1294 10.9606 16.7656 10.5008 16.29 10.2789C15.8144 10.0571 15.3943 10.1202 15.3773 10.1193H15.3755C15.0361 10.1037 14.6637 10.0996 14.2941 10.0996ZM14.2941 11.9359C14.6481 11.9359 14.9971 11.9402 15.2894 11.9538C15.5901 11.9688 15.5714 11.9701 15.5136 11.9431C15.4548 11.9157 15.5345 11.9068 15.7054 12.3125C15.9289 12.8431 16.3146 13.7715 16.6594 14.5989C16.8319 15.0126 16.9932 15.4008 17.1221 15.7053C17.251 16.0098 17.3208 16.1799 17.4019 16.3419V16.3437L17.4036 16.3455C17.4831 16.5023 17.4761 16.4019 17.4485 16.4567C17.2547 16.8413 17.2284 16.9357 17.0324 17.1615C16.734 17.5052 16.4296 17.8886 16.2685 18.0473C16.1276 18.1858 15.8732 18.4015 15.7144 18.8238C15.5553 19.2467 15.6296 19.827 15.8848 20.2602C16.2245 20.837 17.3441 22.6592 19.0839 24.191C20.1796 25.1569 21.2004 25.7962 22.0159 26.2264C22.8314 26.6565 23.4956 26.9078 23.6442 26.9813C23.9971 27.156 24.3828 27.2916 24.8313 27.2378C25.2798 27.1839 25.6665 26.9118 25.9126 26.6334L25.9144 26.6316C26.242 26.2602 27.2155 25.1487 27.6826 24.4636C27.7024 24.4706 27.6959 24.4652 27.8512 24.521V24.5228H27.8529C27.9238 24.548 28.8116 24.9454 29.6032 25.3226C30.3947 25.6998 31.1981 26.0918 31.4592 26.221C31.8359 26.4074 32.014 26.5288 32.0599 26.5294C32.063 26.6102 32.0662 26.6978 32.0545 26.8307C32.0223 27.1995 31.9238 27.7099 31.7264 28.2563C31.6297 28.5238 31.126 29.0756 30.4908 29.4775C29.8556 29.8795 29.0825 30.1634 28.7962 30.2056C27.9353 30.3325 26.9132 30.3788 25.7907 30.0263C25.0124 29.782 24.0419 29.4657 22.7852 28.9306C20.2366 27.8437 18.0705 25.9941 16.5232 24.365C15.7495 23.5504 15.1296 22.7921 14.6887 22.2184C14.2485 21.6459 14.0563 21.3479 13.896 21.1371L13.8942 21.1353C13.6098 20.7591 11.8679 18.3362 11.8679 16.1537C11.8679 13.8438 12.9407 12.938 13.5212 12.3125C13.826 11.9841 14.1592 11.9359 14.2941 11.9359Z" fill="#1C2E28"/>
</svg>
