<svg width="38" height="35" viewBox="0 0 38 35" fill="none" xmlns="http://www.w3.org/2000/svg">
<path d="M34.908 0.214376C34.401 0.236744 33.9286 0.384416 33.5128 0.552508C33.1232 0.709199 31.6349 1.34753 29.2907 2.35283C26.9444 3.35901 23.8377 4.69283 20.5236 6.11798C13.8955 8.96829 6.44378 12.1767 2.62698 13.8189C2.48346 13.8806 1.98267 14.0406 1.45114 14.4555C0.919607 14.8705 0.354492 15.7303 0.354492 16.6884C0.354492 17.461 0.72268 18.2285 1.18611 18.6868C1.64955 19.145 2.13992 19.3714 2.55997 19.5427C4.08403 20.1646 8.8108 22.0989 9.70339 22.4641C10.0175 23.4264 11.7284 28.6599 12.1251 29.9426C12.3867 30.789 12.6357 31.3192 12.9598 31.7399C13.1219 31.9502 13.3103 32.1346 13.5386 32.2791C13.6299 32.3368 13.7299 32.3813 13.831 32.4222L13.8371 32.4253C13.8604 32.4346 13.8805 32.4505 13.9042 32.4588C13.9487 32.4744 13.9786 32.4763 14.0382 32.4893C14.2758 32.566 14.5156 32.6141 14.7297 32.6141C15.6423 32.6141 16.201 32.1115 16.201 32.1115L16.2345 32.0871L20.9288 28.0265L26.6222 33.4123C26.7023 33.5256 27.45 34.5516 29.0988 34.5516C30.0778 34.5516 30.8544 34.0603 31.353 33.5372C31.8516 33.014 32.1622 32.4644 32.2943 31.7734V31.7703C32.4178 31.1174 37.6648 4.18058 37.6648 4.18058L37.6557 4.21713C37.8092 3.51604 37.8495 2.86312 37.68 2.2188C37.5105 1.57448 37.064 0.957585 36.5103 0.625618C35.9566 0.293726 35.4149 0.192009 34.908 0.214376ZM34.6155 3.47385C34.608 3.51937 34.6211 3.49648 34.6094 3.55L34.6064 3.56828L34.6033 3.58656C34.6033 3.58656 29.4213 30.1788 29.2298 31.1916C29.2438 31.1151 29.1797 31.2671 29.114 31.3591C29.0211 31.2951 28.8307 31.2129 28.8307 31.2129L28.8002 31.1794L21.0232 23.8227L15.5247 28.5748L17.1606 22.0254C17.1606 22.0254 27.3861 11.4405 28.0021 10.8244C28.4981 10.3316 28.6022 10.1598 28.6022 9.98975C28.6022 9.76204 28.4836 9.59678 28.2184 9.59678C27.9798 9.59678 27.6589 9.82878 27.4873 9.93796C25.2521 11.3628 15.4394 17.0819 11.0407 19.6402C10.3417 19.3542 5.48529 17.3663 3.83939 16.6945C3.85185 16.6891 3.84775 16.691 3.86071 16.6854C7.67851 15.0428 15.1271 11.8344 21.7543 8.98449C25.0679 7.55954 28.177 6.22471 30.5214 5.21934C32.8297 4.22946 34.4335 3.5482 34.6155 3.47385Z" fill="#1C2E28"/>
</svg>
