<svg width="20" height="18" viewBox="0 0 20 18" fill="none" xmlns="http://www.w3.org/2000/svg">
<path d="M18.1233 0.187671C17.8633 0.199143 17.621 0.274889 17.4077 0.361108C17.2079 0.441479 16.4445 0.768899 15.2421 1.28455C14.0386 1.80064 12.4451 2.48479 10.7452 3.2158C7.34547 4.6778 3.52327 6.32351 1.56553 7.1658C1.49191 7.19746 1.23504 7.27952 0.962402 7.49236C0.689766 7.7052 0.399902 8.14624 0.399902 8.63767C0.399902 9.03394 0.588756 9.42763 0.826465 9.66267C1.06417 9.89772 1.3157 10.0138 1.53115 10.1017C2.31289 10.4207 4.73738 11.4129 5.19521 11.6002C5.35634 12.0938 6.23389 14.7782 6.4374 15.4361C6.57156 15.8703 6.69926 16.1422 6.86553 16.358C6.94866 16.4659 7.0453 16.5604 7.1624 16.6345C7.20921 16.6642 7.26053 16.687 7.3124 16.708L7.31553 16.7095C7.32748 16.7143 7.33778 16.7225 7.3499 16.7267C7.37277 16.7347 7.38806 16.7357 7.41865 16.7424C7.54051 16.7817 7.66354 16.8064 7.77334 16.8064C8.24147 16.8064 8.52803 16.5486 8.52803 16.5486L8.54521 16.5361L10.953 14.4533L13.8733 17.2158C13.9145 17.2739 14.2979 17.8002 15.1437 17.8002C15.6458 17.8002 16.0442 17.5482 16.2999 17.2799C16.5556 17.0115 16.715 16.7296 16.7827 16.3752V16.3736C16.8461 16.0387 19.5374 2.22205 19.5374 2.22205L19.5327 2.2408C19.6115 1.88119 19.6321 1.54628 19.5452 1.2158C19.4583 0.885308 19.2292 0.568883 18.9452 0.398608C18.6612 0.228371 18.3834 0.176198 18.1233 0.187671ZM17.9733 1.85955C17.9695 1.88289 17.9762 1.87115 17.9702 1.89861L17.9687 1.90798L17.9671 1.91736C17.9671 1.91736 15.3091 15.5573 15.2108 16.0767C15.218 16.0375 15.1852 16.1155 15.1515 16.1627C15.1038 16.1298 15.0062 16.0877 15.0062 16.0877L14.9905 16.0705L11.0015 12.297L8.18115 14.7345L9.02022 11.3752C9.02022 11.3752 14.2652 5.94586 14.5812 5.62986C14.8356 5.37706 14.889 5.28893 14.889 5.20173C14.889 5.08493 14.8281 5.00017 14.6921 5.00017C14.5697 5.00017 14.4051 5.11917 14.3171 5.17517C13.1706 5.90601 8.13736 8.83948 5.88115 10.1517C5.5226 10.005 3.03163 8.98535 2.1874 8.6408C2.19379 8.638 2.19169 8.63899 2.19834 8.63611C4.1566 7.7936 7.97721 6.1479 11.3765 4.68611C13.0761 3.95521 14.6708 3.27054 15.8733 2.75486C17.0573 2.24712 17.88 1.89768 17.9733 1.85955Z" fill="#A9E589"/>
</svg>
