<svg width="24" height="23" viewBox="0 0 24 23" fill="none" xmlns="http://www.w3.org/2000/svg">
<path d="M11.9629 0C5.87143 0 0.922852 4.94858 0.922852 11.04C0.922852 12.998 1.45982 14.8252 2.35535 16.4203L0.940664 21.4706C0.918063 21.5514 0.917042 21.6368 0.937702 21.7181C0.958363 21.7994 0.999983 21.8739 1.05841 21.9342C1.11684 21.9944 1.19004 22.0383 1.27071 22.0614C1.35138 22.0845 1.4367 22.0861 1.51816 22.0659L6.7841 20.7609C8.33147 21.587 10.0873 22.08 11.9629 22.08C18.0543 22.08 23.0029 17.1314 23.0029 11.04C23.0029 4.94858 18.0543 0 11.9629 0ZM11.9629 0.96C17.5354 0.96 22.0429 5.46742 22.0429 11.04C22.0429 16.6126 17.5354 21.12 11.9629 21.12C10.1763 21.12 8.50307 20.6542 7.04848 19.8403C6.94209 19.7809 6.81708 19.7641 6.69879 19.7934L2.08723 20.9362L3.32379 16.5244C3.34148 16.462 3.34637 16.3967 3.33815 16.3325C3.32993 16.2682 3.30878 16.2062 3.27598 16.1503C2.39198 14.6513 1.88285 12.9073 1.88285 11.04C1.88285 5.46742 6.39028 0.96 11.9629 0.96ZM7.95129 5.28C7.64359 5.28 7.20415 5.39447 6.84316 5.78344C6.62634 6.01706 5.72285 6.89737 5.72285 8.445C5.72285 10.0585 6.84192 11.4508 6.97723 11.6297H6.97816V11.6306C6.96533 11.6138 7.14991 11.8811 7.39629 12.2016C7.64267 12.5221 7.98721 12.943 8.42004 13.3987C9.2857 14.3102 10.5028 15.3636 12.0135 16.0078C12.7092 16.3041 13.258 16.4829 13.6738 16.6134C14.4444 16.8554 15.1462 16.8186 15.6735 16.7409C16.0681 16.6828 16.5022 16.4933 16.9316 16.2216C17.361 15.9498 17.7819 15.6119 17.9675 15.0984C18.1005 14.7304 18.1681 14.3902 18.1925 14.1103C18.2048 13.9704 18.2063 13.8468 18.1972 13.7325C18.1881 13.6182 18.1978 13.5306 18.0913 13.3556C17.8678 12.9887 17.6147 12.9791 17.3507 12.8484C17.2039 12.7758 16.7862 12.5718 16.3672 12.3722C15.9487 12.1728 15.5863 11.9961 15.3632 11.9166C15.2222 11.8658 15.05 11.7928 14.8016 11.8209C14.5532 11.8491 14.3079 12.0283 14.165 12.24C14.0297 12.4407 13.4846 13.084 13.3185 13.2731C13.3163 13.2718 13.3307 13.2784 13.265 13.2459C13.0595 13.1442 12.8082 13.0578 12.4363 12.8616C12.0644 12.6654 11.5991 12.3757 11.09 11.9269V11.9259C10.3323 11.2589 9.80154 10.4213 9.6341 10.14C9.64538 10.1266 9.63276 10.1428 9.6566 10.1194L9.65754 10.1184C9.82867 9.94988 9.98033 9.74857 10.1085 9.60094C10.2902 9.39162 10.3704 9.20709 10.4572 9.03469C10.6303 8.69109 10.534 8.313 10.4338 8.11406V8.11312C10.4407 8.12689 10.3796 7.99207 10.3138 7.83656C10.2478 7.68061 10.1636 7.47842 10.0738 7.26281C9.89407 6.8316 9.69342 6.34796 9.5741 6.06469V6.06375C9.43353 5.73009 9.24336 5.48972 8.99473 5.37375C8.74609 5.25778 8.52642 5.29075 8.51754 5.29031H8.5166C8.33917 5.28213 8.14447 5.28 7.95129 5.28ZM7.95129 6.24C8.13635 6.24 8.31879 6.24226 8.4716 6.24937C8.6288 6.25721 8.61902 6.25785 8.58879 6.24375C8.55807 6.22943 8.59975 6.22478 8.6891 6.43687C8.80594 6.71424 9.00757 7.19964 9.18785 7.63219C9.27799 7.84846 9.36235 8.05143 9.42973 8.21062C9.4971 8.36982 9.53361 8.4587 9.57598 8.54344V8.54437L9.57691 8.54531C9.61845 8.62727 9.61478 8.5748 9.60035 8.60344C9.49906 8.80447 9.48531 8.85384 9.38285 8.97188C9.22684 9.1516 9.06771 9.35203 8.98348 9.435C8.90978 9.50739 8.77681 9.62018 8.69379 9.84094C8.61064 10.062 8.64945 10.3654 8.78285 10.5919C8.96047 10.8934 9.54577 11.8461 10.4554 12.6469C11.0282 13.1518 11.5618 13.486 11.9882 13.7109C12.4145 13.9358 12.7617 14.0672 12.8394 14.1056C13.0239 14.1969 13.2256 14.2678 13.46 14.2397C13.6945 14.2115 13.8967 14.0693 14.0254 13.9237L14.0263 13.9228C14.1976 13.7286 14.7065 13.1475 14.9507 12.7894C14.961 12.793 14.9576 12.7902 15.0388 12.8194V12.8203H15.0397C15.0768 12.8335 15.5409 13.0412 15.9547 13.2384C16.3685 13.4356 16.7886 13.6406 16.925 13.7081C17.122 13.8056 17.2151 13.8691 17.2391 13.8694C17.2407 13.9116 17.2424 13.9574 17.2363 14.0269C17.2195 14.2197 17.1679 14.4865 17.0647 14.7722C17.0142 14.912 16.7509 15.2005 16.4188 15.4106C16.0867 15.6208 15.6825 15.7692 15.5329 15.7912C15.0828 15.8576 14.5485 15.8818 13.9616 15.6975C13.5547 15.5698 13.0473 15.4044 12.3904 15.1247C11.058 14.5565 9.92554 13.5895 9.1166 12.7378C8.71214 12.312 8.38808 11.9155 8.15754 11.6156C7.92743 11.3163 7.82694 11.1605 7.74316 11.0503L7.74223 11.0494C7.59351 10.8527 6.68285 9.58601 6.68285 8.445C6.68285 7.23743 7.24373 6.76389 7.54723 6.43687C7.70656 6.2652 7.88075 6.24 7.95129 6.24Z" fill="#A9E589"/>
</svg>
