<svg width="58" height="58" viewBox="0 0 58 58" fill="none" xmlns="http://www.w3.org/2000/svg">
<g clip-path="url(#clip0_65_330)">
<path d="M43.1057 0.432373C36.13 0.432373 34.1495 3.07588 28.8836 3.07588C23.6169 3.07588 21.6425 0.432373 14.6616 0.432373H14.6594C6.88366 0.432373 0.557129 6.7602 0.557129 14.5377C0.557129 19.4189 1.30186 24.2559 2.771 28.9149C2.77273 28.9197 2.77403 28.9244 2.77576 28.9292C3.39298 30.8837 5.18413 32.1964 7.23376 32.1964H50.5335C52.5832 32.1964 54.3743 30.8833 54.9915 28.9292C54.9924 28.9275 54.9928 28.9253 54.9937 28.9231C56.4646 24.262 57.2102 19.4219 57.2102 14.5377C57.2102 6.7602 50.8836 0.432373 43.1057 0.432373Z" fill="white"/>
<path d="M25.3285 57.0859H32.4396C35.3251 57.0859 37.6548 54.7505 37.6548 51.8706H20.1133C20.1133 54.7553 22.4482 57.0859 25.3285 57.0859Z" fill="white"/>
<path d="M20.1133 43.6936H37.6548V48.551H20.1133V43.6936Z" fill="white"/>
<path d="M20.1133 35.5164H37.6548V40.3742H20.1133V35.5164Z" fill="white"/>
</g>
<defs>
<clipPath id="clip0_65_330">
<rect width="56.653" height="56.653" fill="white" transform="translate(0.557129 0.432373)"/>
</clipPath>
</defs>
</svg>
