<svg width="90" height="72" viewBox="0 0 90 72" fill="none" xmlns="http://www.w3.org/2000/svg">
<path d="M61.4151 30.9517C61.4151 36.1497 57.2616 40.3788 52.1562 40.3788H37.6765C32.5712 40.3788 28.4177 36.1497 28.4177 30.9517V29.6565H13.1187C14.0486 31.6087 15.2914 33.4222 16.8235 35.0339C16.4063 44.2481 17.7108 54.7578 20.3792 61.6556C22.8684 68.2748 26.3371 71.9201 30.146 71.9201C33.7444 71.9201 38.2821 70.0714 39.4647 61.2646C42.1149 41.5334 44.8885 41.3052 44.9164 41.3052C47.6887 43.3567 49.3723 56.0232 50.3743 61.3075C51.5112 68.1512 54.8183 71.9202 59.6867 71.9202C63.4957 71.9202 66.9643 68.275 69.4537 61.6558C72.122 54.76 73.4271 44.2464 73.0094 35.0341C74.5415 33.4223 75.7842 31.6087 76.7143 29.6567H61.4152V30.9517H61.4151Z" fill="white"/>
<path d="M28.4185 23.0001C28.4185 17.8022 32.572 13.5731 37.6774 13.5731H52.157C57.2624 13.5731 61.4159 17.8022 61.4159 23.0001V24.2954H78.4115C81.5817 5.58057 59.7448 -6.99878 44.9172 4.25727C30.0812 -7.00146 8.25336 5.58718 11.4229 24.2954H28.4185V23.0001Z" fill="white"/>
<path d="M37.6768 35.018H52.1565C54.3584 35.018 56.1498 33.1939 56.1498 30.9521V23.0004C56.1498 20.7586 54.3584 18.9346 52.1565 18.9346H37.6768C35.4749 18.9346 33.6836 20.7586 33.6836 23.0004V30.9521C33.6836 33.1941 35.4749 35.018 37.6768 35.018ZM47.4647 26.1721C47.5942 22.6193 52.602 22.622 52.7303 26.1721V27.7804C52.6008 31.3333 47.593 31.3306 47.4647 27.7804V26.1721ZM37.1031 26.1721C37.2326 22.6193 42.2404 22.622 42.3687 26.1721V27.7804C42.2391 31.3333 37.2314 31.3306 37.1031 27.7804V26.1721Z" fill="white"/>
<path d="M2.61615 29.6561H13.1187C12.3108 27.9603 11.7391 26.1599 11.4222 24.2949H2.61615C-0.873365 24.4268 -0.870732 29.5254 2.61615 29.6561Z" fill="white"/>
<path d="M87.2173 29.6561C90.7068 29.5242 90.7041 24.4256 87.2173 24.2949H78.4114C78.0944 26.1599 77.5228 27.9603 76.7148 29.6561H87.2173Z" fill="white"/>
</svg>
