<svg width="72" height="76" viewBox="0 0 72 76" fill="none" xmlns="http://www.w3.org/2000/svg">
<path d="M47.9929 37.9766C46.8344 37.9766 45.8805 37.0637 45.826 35.9033C44.8806 23.2775 26.8425 23.2863 25.9013 35.9033C25.8468 37.0637 24.8927 37.9766 23.7344 37.9766H6.21507C5.77989 49.7665 8.41294 74.2966 20.7197 75.2514C24.0071 75.2511 29.7252 73.7609 31.0862 63.7797C31.8908 57.8797 32.7785 53.164 33.7246 49.7633C34.6548 46.4195 35.438 45.0828 35.8411 44.5713C36.2226 45.097 36.9479 46.4531 37.8535 49.8506C38.6873 52.9784 39.5239 57.1647 40.6511 63.8485C41.6365 69.9389 44.7656 75.2072 51.0075 75.2511C55.2763 75.2511 59.1046 71.3823 61.7868 64.357C64.4725 57.4809 65.8489 47.2468 65.5122 37.9764H47.9929V37.9766Z" fill="white"/>
<path d="M48.9241 0.99196C44.2287 0.99196 39.6538 2.43508 35.8633 5.08549C16.5741 -8.18875 -8.33426 12.8416 3.33567 33.6253H21.8159C25.2151 18.2018 46.5181 18.2127 49.911 33.6253H68.3912C76.9968 19.2662 65.7477 0.780061 48.9241 0.99196Z" fill="white"/>
</svg>
