<svg width="76" height="76" viewBox="0 0 76 76" fill="none" xmlns="http://www.w3.org/2000/svg">
<path d="M48.5624 55.113C50.4815 53.9 52.2183 52.3804 53.64 50.7044C52.6101 48.1609 49.7022 42.8628 48.1257 42.2923C46.2997 42.3477 43.3665 46.2689 41.8216 50.7348C39.8028 56.3456 31.6245 55.3943 30.9953 49.4448L29.7434 38.5993C29.7412 38.5805 29.7393 38.5616 29.7375 38.5428C29.5823 36.835 29.1155 35.1909 28.3503 33.6565L24.1176 25.1693C23.9042 24.7547 23.7093 24.3266 23.5355 23.8921C11.1679 36.3142 19.4846 56.8352 36.5206 58.2941H36.5207C41.7374 58.6593 45.9483 56.7653 48.5624 55.113Z" fill="white"/>
<path d="M37.8687 17.8699C34.1468 17.8699 30.5675 18.8908 27.4395 20.8012C27.5194 21.0903 27.6306 21.4429 27.7875 21.8722C27.932 22.2674 28.1031 22.6574 28.2962 23.0312C28.3012 23.0409 28.3062 23.0508 28.3112 23.0607L32.5508 31.5618C33.5733 33.612 34.1985 35.8077 34.4095 38.0887L35.661 48.9309C35.6632 48.9498 35.6651 48.9686 35.6669 48.9875C35.7525 49.9313 37.0745 50.0893 37.3863 49.2003C38.2819 46.6112 39.6545 43.9851 41.1518 41.9954C43.3477 39.0777 45.7072 37.5983 48.1647 37.5983C50.3429 37.5983 52.4647 39.228 54.6513 42.5804C55.369 43.6808 56.0206 44.8469 56.5878 45.9568C56.8021 45.4353 56.9925 44.9018 57.1509 44.3593L57.169 44.2998C61.4472 31.4929 51.3923 17.7016 37.8687 17.8699Z" fill="white"/>
<path d="M19.9713 55.2842C19.0747 54.3596 18.2587 53.3797 17.5244 52.3547L13.9224 55.9575L20.0456 62.0783L23.6803 58.4427C22.354 57.5128 21.1081 56.4565 19.9713 55.2842Z" fill="white"/>
<path d="M10.6039 59.2761L1.50481 68.3773C-2.68897 72.9029 3.11817 78.6848 7.63273 74.4933L16.727 65.397L10.6039 59.2761Z" fill="white"/>
<path d="M75.4788 12.4114C75.296 4.64477 67.4138 -1.16177 59.951 0.918916C54.9115 2.24271 49.6403 2.24271 44.6009 0.918769C37.1402 -1.16177 29.2544 4.64492 29.0732 12.4114C29.0732 12.4114 29.0227 13.4721 29.1126 14.7753C48.4236 7.404 68.0129 26.0479 61.648 45.7039C61.4741 46.297 61.2705 46.8821 61.044 47.4571C61.5255 48.6101 62.6547 49.3708 63.9174 49.3708C65.5154 49.3708 66.8545 48.1619 67.0174 46.5721L68.4604 32.4835C68.6477 30.654 69.1491 28.8707 69.9425 27.2117L73.815 19.1141C74.954 17.157 75.5721 14.8597 75.4788 12.4114ZM58.588 10.402L56.0384 11.5514C53.6581 12.6245 50.9264 12.6277 48.5438 11.5599L45.9643 10.404C44.7814 9.87411 44.2522 8.48566 44.7822 7.30282C45.3122 6.12027 46.7005 5.59093 47.8834 6.12086L50.4631 7.27675C51.6225 7.79637 52.9516 7.79475 54.1094 7.27262L56.6592 6.12307C57.8408 5.59063 59.2303 6.11629 59.7631 7.29796C60.2956 8.47962 59.7695 9.8694 58.588 10.402Z" fill="white"/>
</svg>
