<svg width="72" height="71" viewBox="0 0 72 71" fill="none" xmlns="http://www.w3.org/2000/svg">
<path d="M53.6024 0.00512695C44.9638 0.00512695 42.5146 3.27797 35.994 3.27797C29.4745 3.27797 27.0258 0.00512695 18.384 0.00512695C8.75651 0.00512695 0.923828 7.83888 0.923828 17.4685C0.923828 23.5176 1.848 29.5127 3.67064 35.2856L13.1151 65.195C14.0511 68.1559 16.7658 70.1455 19.8717 70.1455C22.4237 70.1455 24.767 68.7542 25.9887 66.5152L32.0004 55.4921C32.7988 54.0296 34.3292 53.1209 35.994 53.1209C37.6593 53.1209 39.1893 54.0296 39.9877 55.491L46.0004 66.5157C47.2226 68.7547 49.5665 70.1455 52.1164 70.1455C55.2223 70.1455 57.9375 68.1559 58.8729 65.1945L68.3179 35.2856C70.14 29.5127 71.0642 23.5176 71.0642 17.4685C71.0642 7.83888 63.2321 0.00512695 53.6024 0.00512695V0.00512695ZM51.4014 30.5273C45.4134 30.5273 40.5421 25.656 40.5421 19.6679C40.5421 13.6803 45.4134 8.80906 51.4014 8.80906C57.389 8.80906 62.2603 13.6803 62.2603 19.6679C62.2603 25.656 57.389 30.5273 51.4014 30.5273Z" fill="white"/>
</svg>
