<svg width="74" height="74" viewBox="0 0 74 74" fill="none" xmlns="http://www.w3.org/2000/svg">
<path d="M61.8708 25.3227C62.4013 24.7592 62.8571 24.2728 62.887 24.2588L72.0953 14.1275C73.7617 12.2939 74.286 9.80461 73.4978 7.46851C72.7342 5.20533 70.8651 3.55409 68.4977 3.05119C66.822 2.69487 64.3076 2.76937 61.8479 5.14573C60.9442 6.01871 59.4884 6.03533 58.5636 5.1837C54.643 1.57187 50.6203 2.74028 48.3671 4.83855C44.9162 8.05178 45.7558 12.2063 48.0019 14.7264L58.492 25.361C59.4175 26.299 60.9684 26.2814 61.8708 25.3227Z" fill="white"/>
<path d="M66.3998 27.3027C66.3862 27.3177 66.3723 27.3325 66.3584 27.3471L63.633 30.1915C63.62 30.205 63.6068 30.2185 63.5935 30.2316C62.6978 31.1222 61.4535 31.6319 60.1769 31.6319H60.1543C58.861 31.6257 57.6559 31.1228 56.7609 30.2156L44.7747 18.064L42.8695 18.897C38.7989 20.6768 34.1277 20.6821 30.0533 18.9112L25.0126 16.7206C23.8257 16.2047 23.2945 14.8532 23.8264 13.7018C24.358 12.5505 25.7515 12.0354 26.9389 12.5512L31.9795 14.7417C34.8263 15.9789 38.0899 15.9753 40.9336 14.7317L42.1732 14.1897C40.291 9.72766 41.686 5.06462 44.6411 2.00054C37.9851 3.14975 31.1544 2.8867 24.5784 1.21123C22.9274 0.790578 21.1893 0.578245 19.3958 0.60475C5.34447 0.680543 -3.90551 15.7541 2.65388 27.7117L9.18225 40.4082C10.5565 43.0808 11.4047 45.9786 11.6836 48.9528L13.6156 69.5663C14.1681 74.7248 21.4657 75.5844 23.2773 70.7126C25.4788 64.5407 30.7371 51.6923 36.4596 51.3644C42.243 51.0332 47.6938 64.5068 49.9186 70.7994C50.5869 72.6898 52.4202 73.9579 54.4807 73.9579C56.9545 73.9579 59.0273 72.1428 59.2795 69.756L61.5132 48.6031C61.8032 45.8565 62.5794 43.1788 63.8074 40.6881L69.8021 28.5304C71.0137 26.5109 71.7606 23.7779 72.0624 21.0728L66.3998 27.3027Z" fill="white"/>
</svg>
