<svg width="75" height="76" viewBox="0 0 75 76" fill="none" xmlns="http://www.w3.org/2000/svg">
<path d="M51.3822 14.4364C49.9405 14.4145 48.5436 14.5899 47.2166 14.9378C40.9463 16.5812 34.3879 16.5812 28.1178 14.9378C26.7907 14.5901 25.3938 14.4145 23.9522 14.4364C12.6599 14.4981 5.22306 26.9611 10.4958 36.8465L15.7429 47.3432C16.8475 49.5528 17.5293 51.9484 17.7533 54.4074L19.3061 71.4493C19.4935 73.5056 21.2217 75.0801 23.2913 75.0801C24.9956 75.0801 26.5144 74.004 27.0716 72.3971C28.841 67.2945 33.0674 56.6722 37.6669 56.4013C42.3153 56.1274 46.6964 67.2665 48.4845 72.4689C49.0216 74.0317 50.4953 75.0801 52.1512 75.0801C54.1396 75.0801 55.8058 73.5795 56.0083 71.6062L57.8037 54.1182C58.0368 51.8475 58.6606 49.6338 59.6478 47.5745L64.466 37.5232C70.3868 27.5808 63.0545 14.5424 51.3822 14.4364ZM46.9778 28.0995L42.9734 29.9004C39.604 31.4158 35.7375 31.4202 32.3647 29.9126L28.3133 28.1017C27.17 27.5906 26.6585 26.2516 27.1708 25.111C27.683 23.9705 29.025 23.4602 30.1683 23.9712L34.2197 25.7822C36.41 26.7612 38.921 26.7583 41.1087 25.7743L45.1131 23.9732C46.2555 23.4596 47.5984 23.967 48.1134 25.1063C48.6284 26.2458 48.1198 27.5859 46.9778 28.0995Z" fill="white"/>
<path d="M70.1114 6.37502C67.0524 3.27892 62.8586 1.38211 57.9829 0.889674C56.2006 0.709841 54.3319 0.764459 52.4291 1.05237C31.8406 4.19262 35.6153 2.32863 21.2675 0.80426C21.2503 0.802372 21.2331 0.800774 21.2159 0.799321C10.0359 -0.35652 0.38836 6.98744 0.467278 18.1714C0.467132 19.3746 1.44501 20.3501 2.65119 20.3501C3.85737 20.3501 4.83524 19.3746 4.83524 18.1712C4.81267 9.48607 12.1293 4.27963 20.8224 5.13957C35.2834 6.71783 31.8901 8.57485 53.0845 5.3608C54.6248 5.12751 56.1248 5.0819 57.543 5.22528C61.394 5.61428 64.6644 7.06965 67.0004 9.43421C69.289 11.7505 70.4987 14.772 70.4987 18.1714C70.4987 19.3747 71.4766 20.3503 72.6827 20.3503C73.8889 20.3503 74.8668 19.3747 74.8668 18.1714C74.8668 13.6031 73.2224 9.52398 70.1114 6.37502Z" fill="white"/>
</svg>
